<svg xmlns="http://www.w3.org/2000/svg" viewBox="0 0 100 100">
<style type="text/css">
	.st0{fill:#2A2A2A;}
	.st1{fill:#FAFAFA;}
	.st2{fill:#FFBC00;}
</style>
<g>
	<path id="logo-crust" class="st0" d="M5,50a45,45 0 1,0 90,0a45,45 0 1,0 -90,0z"/>
	<path id="logo-mantle" class="st1" d="M7,50a43,43 0 1,0 86,0a43,43 0 1,0 -86,0z"/>
	<path id="logo-core" class="st2" d="M9,50a41,41 0 1,0 82,0a41,41 0 1,0 -82,0z"/>

	<g id="logo-letters">
		<path id="logo-b" class="st0" d="M20.1,72.1V27.9h15.3c2.9,0,5.4,0.3,7.4,0.8c2.1,0.6,3.7,1.3,5.1,2.4c1.3,1,2.3,2.3,2.9,3.7
			c0.6,1.5,0.9,3.1,0.9,4.9c0,1-0.2,2-0.5,3c-0.3,0.9-0.8,1.8-1.4,2.7c-0.6,0.8-1.5,1.6-2.5,2.3c-1,0.7-2.2,1.2-3.5,1.7
			c6.1,1.4,9.1,4.7,9.1,9.9c0,1.9-0.4,3.6-1.1,5.2c-0.7,1.6-1.8,3-3.1,4.1c-1.4,1.2-3.1,2.1-5.1,2.7c-2,0.7-4.3,1-6.9,1H20.1z
			 M28.3,47h6.6c2.8,0,4.9-0.5,6.4-1.5c1.4-1,2.2-2.6,2.2-4.9c0-2.3-0.7-4-2-4.9c-1.3-1-3.3-1.5-6.1-1.5h-7V47z M28.3,52.7v13h8.4
			c1.5,0,2.8-0.2,3.8-0.6c1-0.4,1.9-0.9,2.5-1.5c0.6-0.6,1.1-1.3,1.3-2.1c0.3-0.8,0.4-1.7,0.4-2.6c0-1-0.2-1.8-0.5-2.6
			s-0.8-1.4-1.4-2c-0.7-0.5-1.5-1-2.5-1.2c-1-0.3-2.3-0.4-3.7-0.4H28.3z"/>
		<path id="logo-c" class="st0" d="M76.6,61.7c0.4,0,0.8,0.2,1.2,0.5l3.2,3.5c-1.8,2.2-4,3.9-6.6,5.1c-2.6,1.2-5.8,1.8-9.4,1.8
			c-3.3,0-6.2-0.6-8.9-1.7c-2.6-1.1-4.9-2.7-6.7-4.7c-1.9-2-3.3-4.4-4.3-7.2c-1-2.8-1.5-5.8-1.5-9.1c0-3.3,0.6-6.4,1.7-9.1
			c1.1-2.8,2.7-5.2,4.7-7.2c2-2,4.4-3.6,7.2-4.7c2.8-1.1,5.9-1.7,9.2-1.7c3.3,0,6.2,0.5,8.6,1.6c2.5,1.1,4.6,2.4,6.3,4.2L78.5,37
			c-0.2,0.2-0.4,0.5-0.6,0.6c-0.3,0.2-0.6,0.3-1.1,0.3c-0.5,0-0.9-0.2-1.4-0.6c-0.5-0.4-1.1-0.8-1.9-1.2c-0.8-0.4-1.7-0.8-2.9-1.2
			c-1.2-0.4-2.6-0.6-4.4-0.6c-2.1,0-4,0.4-5.7,1.1c-1.7,0.7-3.2,1.8-4.5,3.1s-2.2,3-2.9,4.9C52.4,45.4,52,47.6,52,50
			c0,2.5,0.4,4.7,1.1,6.6c0.7,1.9,1.7,3.6,2.9,4.9c1.2,1.3,2.6,2.3,4.3,3c1.6,0.7,3.4,1.1,5.3,1.1c1.1,0,2.1-0.1,3-0.2
			c0.9-0.1,1.7-0.3,2.5-0.6c0.8-0.3,1.5-0.6,2.2-1c0.7-0.4,1.4-0.9,2-1.5c0.2-0.2,0.4-0.3,0.6-0.4C76.1,61.8,76.4,61.7,76.6,61.7z"
			/>
	</g>
</g>
</svg>
